<?xml version="1.0" encoding="UTF-8" standalone="no"?>
<!-- Created with Inkscape (http://www.inkscape.org/) -->

<svg
   width="110mm"
   height="110mm"
   viewBox="0 0 110 110"
   version="1.1"
   id="svg1"
   inkscape:version="1.4.3 (0d15f75, 2025-12-25)"
   sodipodi:docname="aimo.svg"
   xmlns:inkscape="http://www.inkscape.org/namespaces/inkscape"
   xmlns:sodipodi="http://sodipodi.sourceforge.net/DTD/sodipodi-0.dtd"
   xmlns="http://www.w3.org/2000/svg"
   xmlns:svg="http://www.w3.org/2000/svg">
  <sodipodi:namedview
     id="namedview1"
     pagecolor="#ffffff"
     bordercolor="#000000"
     borderopacity="0.25"
     inkscape:showpageshadow="2"
     inkscape:pageopacity="0.0"
     inkscape:pagecheckerboard="0"
     inkscape:deskcolor="#d1d1d1"
     inkscape:document-units="mm"
     inkscape:zoom="1.4702524"
     inkscape:cx="315.25199"
     inkscape:cy="257.43879"
     inkscape:window-width="2560"
     inkscape:window-height="1369"
     inkscape:window-x="-8"
     inkscape:window-y="-8"
     inkscape:window-maximized="1"
     inkscape:current-layer="layer1" />
  <defs
     id="defs1" />
  <g
     inkscape:label="Layer 1"
     inkscape:groupmode="layer"
     id="layer1"
     transform="translate(-63.888268,-111.02997)">
    <path
       id="rect1"
       style="fill:#627ec6;fill-opacity:1;stroke:#aedcb3;stroke-width:0;stroke-dasharray:none;stroke-dashoffset:0;stroke-opacity:1"
       d="m 119.51973,120.52586 c -3.44366,-3e-5 -6.35888,2.91385 -6.23527,6.23528 0.1686,2.69158 1.70053,4.61444 2.35644,4.72219 -0.0639,1.14251 -0.8004,0.69094 -0.8004,0.69094 H 83.092037 c -7.472591,0 -13.183528,6.02222 -13.488583,13.48858 l -0.156579,3.83801 -4.000273,1.99988 v 26.9999 l 4.000273,1.99988 0.156579,5.3728 c 0,7.47259 6.073695,12.56172 13.488583,13.48858 l 0.09612,0.40669 c 0,4.54214 -0.05116,2.95837 -0.05116,8.11734 0,0 -0.785444,4.68828 5.426542,2.39779 6.211986,-2.29049 26.401501,-10.92182 26.401501,-10.92182 h 39.82031 c 7.47259,0 13.24791,-6.01987 13.48858,-13.48858 l 0.17311,-5.3728 3.99976,-1.99988 v -26.9999 l -3.99976,-1.99988 -0.17311,-3.83801 c 0,-7.47259 -6.01599,-13.48858 -13.48858,-13.48858 h -30.97331 c 0,0 -0.87562,0.46431 -0.83153,-0.71471 0.67395,-0.0543 2.6886,-2.14157 2.7745,-4.69842 0.0859,-2.55684 -2.79162,-6.23531 -6.23528,-6.23528 z m 18.85834,37.30214 c 3.35325,-1.8e-4 6.07165,2.71821 6.07147,6.07146 -1.1e-4,3.35304 -2.71843,6.07112 -6.07147,6.07095 -3.35285,-1.1e-4 -6.07083,-2.71811 -6.07094,-6.07095 -1.8e-4,-3.35306 2.71789,-6.07136 6.07094,-6.07146 z m -36.7962,0.0899 c 3.35305,1e-4 6.07113,2.71841 6.07095,6.07146 -1.1e-4,3.35284 -2.7181,6.07084 -6.07095,6.07095 -3.35285,-1.1e-4 -6.070842,-2.71811 -6.070953,-6.07095 -1.82e-4,-3.35305 2.717896,-6.07136 6.070953,-6.07146 z m 6.47144,13.00178 h 0.12041 c 0.55468,0.61104 1.2337,1.22245 2.0376,1.83348 0.79584,0.61897 1.68857,1.1622 2.67735,1.63039 1.02897,0.492 2.11411,0.88118 3.25562,1.16686 1.14151,0.29361 2.39928,0.44028 3.77393,0.44028 1.31837,0 2.57282,-0.14667 3.76256,-0.44028 1.18976,-0.29362 2.27872,-0.68279 3.2675,-1.16686 1.02094,-0.49993 1.91367,-1.04316 2.67736,-1.63039 0.77173,-0.57929 1.45076,-1.1907 2.0376,-1.83348 h 0.12041 v 3.48971 c -1.63189,1.40458 -3.41247,2.49552 -5.3418,3.27319 -1.92933,0.77768 -4.10393,1.16633 -6.52363,1.16633 -2.4197,0 -4.59378,-0.38865 -6.52312,-1.16633 -1.92932,-0.77767 -3.70989,-1.86861 -5.34179,-3.27319 z"
       sodipodi:nodetypes="ccccscccccccccscsscccccsccsccccccccccccccccsscccccssscc" />
  </g>
</svg>
